# Blender 4.3.2
# www.blender.org
mtllib cook_needle_sprinklel.mtl
o Sphere.005
v 0.202969 0.041531 -0.026275
v 0.171360 0.025292 -0.042514
v 0.132289 0.025292 -0.042514
v 0.100680 0.041531 -0.026275
v 0.202969 0.030647 0.000000
v 0.171360 0.007682 0.000000
v 0.132289 0.007682 0.000000
v 0.100680 0.030647 0.000000
v 0.202969 0.041531 0.026275
v 0.171360 0.025292 0.042514
v 0.132289 0.025292 0.042514
v 0.100680 0.041531 0.026275
v 0.202969 0.067806 0.037159
v 0.171360 0.067806 0.060124
v 0.132289 0.067806 0.060124
v 0.100680 0.067806 0.037159
v 0.202969 0.094081 0.026275
v 0.171360 0.110320 0.042514
v 0.132289 0.110320 0.042514
v 0.100680 0.094081 0.026275
v 0.088606 0.067806 0.000000
v 0.215043 0.067806 0.000000
v 0.202969 0.104965 0.000000
v 0.171360 0.127930 0.000000
v 0.132289 0.127930 0.000000
v 0.100680 0.104965 0.000000
v 0.202969 0.094081 -0.026275
v 0.171360 0.110320 -0.042514
v 0.132289 0.110320 -0.042514
v 0.100680 0.094081 -0.026275
v 0.202969 0.067806 -0.037159
v 0.171360 0.067806 -0.060124
v 0.132289 0.067806 -0.060124
v 0.100680 0.067806 -0.037159
v -0.178519 0.067806 -0.005260
v 0.098018 0.067806 -0.015985
v -0.178519 0.064087 -0.003719
v 0.098018 0.056503 -0.011303
v -0.178519 0.062546 0.000000
v 0.098018 0.051821 0.000000
v -0.178519 0.064087 0.003719
v 0.098018 0.056503 0.011303
v -0.178519 0.067806 0.005260
v 0.098018 0.067806 0.015985
v -0.178519 0.071525 0.003719
v 0.098018 0.079109 0.011303
v -0.178519 0.073065 0.000000
v 0.098018 0.083791 0.000000
v -0.178519 0.071525 -0.003719
v 0.098018 0.079109 -0.011303
v -0.040251 0.078428 0.000000
v 0.108332 0.067806 0.000000
v -0.040251 0.075317 0.007511
v -0.040251 0.067806 0.010622
v -0.229965 0.067806 0.000000
v -0.040251 0.060295 0.007511
v -0.040251 0.057184 0.000000
v -0.040251 0.060295 -0.007511
v -0.040251 0.067806 -0.010622
v -0.040251 0.075317 -0.007511
v 0.028884 0.067806 -0.013304
v 0.028884 0.077213 -0.009407
v 0.028884 0.081110 0.000000
v 0.028884 0.077213 0.009407
v 0.028884 0.067806 0.013304
v 0.028884 0.058399 0.009407
v 0.028884 0.054502 0.000000
v 0.028884 0.058399 -0.009407
v -0.109385 0.062191 -0.005615
v -0.109385 0.059865 0.000000
v -0.109385 0.062191 0.005615
v -0.109385 0.067806 0.007941
v -0.109385 0.073421 0.005615
v -0.109385 0.075747 0.000000
v -0.109385 0.073421 -0.005615
v -0.109385 0.067806 -0.007941
vn 0.7737 -0.4480 -0.4480
vn 0.2889 -0.6770 -0.6770
vn -0.2889 -0.6770 -0.6770
vn -0.7737 -0.4480 -0.4480
vn 0.7737 -0.6336 -0.0000
vn 0.2889 -0.9574 -0.0000
vn -0.2889 -0.9574 -0.0000
vn -0.7737 -0.6336 -0.0000
vn 0.7737 -0.4480 0.4480
vn 0.2889 -0.6770 0.6770
vn -0.2889 -0.6770 0.6770
vn -0.7737 -0.4480 0.4480
vn 0.7737 -0.0000 0.6336
vn 0.2889 -0.0000 0.9574
vn -0.2889 -0.0000 0.9574
vn -0.7737 -0.0000 0.6336
vn 0.7737 0.4480 0.4480
vn 0.2889 0.6770 0.6770
vn -0.2889 0.6770 0.6770
vn -0.7737 0.4480 0.4480
vn -1.0000 -0.0000 -0.0000
vn 1.0000 -0.0000 -0.0000
vn 0.7737 0.6336 -0.0000
vn 0.2889 0.9574 -0.0000
vn -0.2889 0.9574 -0.0000
vn -0.7737 0.6336 -0.0000
vn 0.7737 0.4480 -0.4480
vn 0.2889 0.6770 -0.6770
vn -0.2889 0.6770 -0.6770
vn -0.7737 0.4480 -0.4480
vn 0.7737 -0.0000 -0.6336
vn 0.2889 -0.0000 -0.9574
vn -0.2889 -0.0000 -0.9574
vn -0.7737 -0.0000 -0.6336
vn -0.0697 -0.0000 -0.9976
vn 0.4180 -0.0000 -0.9084
vn -0.0697 -0.7054 -0.7054
vn 0.4180 -0.6424 -0.6424
vn -0.0697 -0.9976 -0.0000
vn 0.4180 -0.9084 -0.0000
vn -0.0697 -0.7054 0.7054
vn 0.4180 -0.6424 0.6424
vn -0.0697 -0.0000 0.9976
vn 0.4180 -0.0000 0.9084
vn -0.0697 0.7054 0.7054
vn 0.4180 0.6424 0.6424
vn -0.0697 0.9976 -0.0000
vn 0.4180 0.9084 -0.0000
vn -0.0697 0.7054 -0.7054
vn 0.4180 0.6424 -0.6424
vn -0.0388 0.9992 -0.0000
vn -0.0388 0.7066 0.7066
vn -0.0388 -0.0000 0.9992
vn -0.0388 -0.7066 0.7066
vn -0.0388 -0.9992 -0.0000
vn -0.0388 -0.7066 -0.7066
vn -0.0388 -0.0000 -0.9992
vn -0.0388 0.7066 -0.7066
vt 0.451556 -0.829424
vt 0.253890 -0.831296
vt 0.261039 -0.888087
vt 0.186037 -0.831812
vt 0.130563 -0.834737
vt 0.128637 -0.901824
vt 0.188499 -0.898805
vt 0.063159 -0.834411
vt -0.133352 -0.833343
vt 0.055911 -0.891243
vt 0.283525 -0.951133
vt 0.120996 -0.980243
vt 0.196296 -0.977885
vt 0.033003 -0.954801
vt 0.336609 -1.029199
vt 0.094318 -1.096447
vt 0.214728 -1.094387
vt -0.015968 -1.027717
vt 0.480388 -1.133146
vt 0.025576 -1.295423
vt 0.271898 -1.320688
vt -0.151840 -1.118273
vt 0.457902 -0.552463
vt 0.332446 -0.637351
vt 0.304341 -0.349632
vt 0.022068 -0.320847
vt 0.103596 -0.580462
vt 0.216257 -0.577547
vt -0.151840 -0.544895
vt -0.017607 -0.637170
vt 0.278471 -0.713479
vt 0.121283 -0.689508
vt 0.196855 -0.686017
vt 0.035607 -0.715528
vt 0.258613 -0.774829
vt 0.127871 -0.767689
vt 0.187953 -0.764996
vt 0.058482 -0.778250
vt 1.000000 0.875000
vt 1.000000 1.000000
vt 0.875000 1.000000
vt 0.875000 0.875000
vt 0.750000 1.000000
vt 0.750000 0.875000
vt 0.625000 1.000000
vt 0.625000 0.875000
vt 0.500000 1.000000
vt 0.500000 0.875000
vt 0.375000 1.000000
vt 0.375000 0.875000
vt 0.250000 1.000000
vt 0.250000 0.875000
vt 0.125000 1.000000
vt 0.125000 0.875000
vt 0.000000 1.000000
vt 0.000000 0.875000
vt 0.750000 0.500000
vt 0.625000 0.500000
vt 0.375000 0.500000
vt 0.250000 0.500000
vt 0.500000 0.500000
vt 0.125000 0.500000
vt 0.875000 0.500000
vt 0.000000 0.500000
vt 1.000000 0.500000
vt 0.750000 0.625000
vt 0.750000 0.750000
vt 0.625000 0.750000
vt 0.625000 0.625000
vt 0.500000 0.750000
vt 0.500000 0.625000
vt 0.375000 0.750000
vt 0.375000 0.625000
vt 0.250000 0.750000
vt 0.250000 0.625000
vt 0.125000 0.750000
vt 0.125000 0.625000
vt 0.000000 0.750000
vt 0.000000 0.625000
vt 0.875000 0.625000
vt 0.875000 0.750000
vt 1.000000 0.625000
vt 1.000000 0.750000
s 1
f 21/1/21 34/2/34 4/3/4
f 33/4/33 32/5/32 2/6/2 3/7/3
f 31/8/31 22/9/22 1/10/1
f 34/2/34 33/4/33 3/7/3 4/3/4
f 32/5/32 31/8/31 1/10/1 2/6/2
f 21/1/21 4/3/4 8/11/8
f 3/7/3 2/6/2 6/12/6 7/13/7
f 1/10/1 22/9/22 5/14/5
f 4/3/4 3/7/3 7/13/7 8/11/8
f 2/6/2 1/10/1 5/14/5 6/12/6
f 21/1/21 8/11/8 12/15/12
f 7/13/7 6/12/6 10/16/10 11/17/11
f 5/14/5 22/9/22 9/18/9
f 8/11/8 7/13/7 11/17/11 12/15/12
f 6/12/6 5/14/5 9/18/9 10/16/10
f 21/1/21 12/15/12 16/19/16
f 11/17/11 10/16/10 14/20/14 15/21/15
f 9/18/9 22/9/22 13/22/13
f 12/15/12 11/17/11 15/21/15 16/19/16
f 10/16/10 9/18/9 13/22/13 14/20/14
f 21/1/21 16/23/16 20/24/20
f 15/25/15 14/26/14 18/27/18 19/28/19
f 13/29/13 22/9/22 17/30/17
f 16/23/16 15/25/15 19/28/19 20/24/20
f 14/26/14 13/29/13 17/30/17 18/27/18
f 21/1/21 20/24/20 26/31/26
f 19/28/19 18/27/18 24/32/24 25/33/25
f 17/30/17 22/9/22 23/34/23
f 20/24/20 19/28/19 25/33/25 26/31/26
f 18/27/18 17/30/17 23/34/23 24/32/24
f 21/1/21 26/31/26 30/35/30
f 25/33/25 24/32/24 28/36/28 29/37/29
f 23/34/23 22/9/22 27/38/27
f 26/31/26 25/33/25 29/37/29 30/35/30
f 24/32/24 23/34/23 27/38/27 28/36/28
f 21/1/21 30/35/30 34/2/34
f 29/37/29 28/36/28 32/5/32 33/4/33
f 27/38/27 22/9/22 31/8/31
f 30/35/30 29/37/29 33/4/33 34/2/34
f 28/36/28 27/38/27 31/8/31 32/5/32
f 61/39/57 36/40/36 38/41/38 68/42/56
f 68/42/56 38/41/38 40/43/40 67/44/55
f 67/44/55 40/43/40 42/45/42 66/46/54
f 66/46/54 42/45/42 44/47/44 65/48/53
f 65/48/53 44/47/44 46/49/46 64/50/52
f 64/50/52 46/49/46 48/51/48 63/52/51
f 40/43/40 38/41/38 52/43/22
f 63/52/51 48/51/48 50/53/50 62/54/58
f 62/54/58 50/53/50 36/55/36 61/56/57
f 39/57/39 41/58/41 55/57/21
f 48/51/48 46/49/46 52/51/22
f 45/59/45 47/60/47 55/59/21
f 41/58/41 43/61/43 55/58/21
f 47/60/47 49/62/49 55/60/21
f 37/63/37 39/57/39 55/63/21
f 43/61/43 45/59/45 55/61/21
f 49/62/49 35/64/35 55/62/21
f 35/65/35 37/63/37 55/65/21
f 42/45/42 40/43/40 52/45/22
f 38/41/38 36/40/36 52/41/22
f 36/55/36 50/53/50 52/55/22
f 46/49/46 44/47/44 52/49/22
f 70/66/55 57/67/55 56/68/54 71/69/54
f 44/47/44 42/45/42 52/47/22
f 50/53/50 48/51/48 52/53/22
f 71/69/54 56/68/54 54/70/53 72/71/53
f 72/71/53 54/70/53 53/72/52 73/73/52
f 73/73/52 53/72/52 51/74/51 74/75/51
f 74/75/51 51/74/51 60/76/58 75/77/58
f 75/77/58 60/76/58 59/78/57 76/79/57
f 69/80/56 58/81/56 57/67/55 70/66/55
f 76/82/57 59/83/57 58/81/56 69/80/56
f 60/76/58 62/54/58 61/56/57 59/78/57
f 51/74/51 63/52/51 62/54/58 60/76/58
f 53/72/52 64/50/52 63/52/51 51/74/51
f 54/70/53 65/48/53 64/50/52 53/72/52
f 56/68/54 66/46/54 65/48/53 54/70/53
f 57/67/55 67/44/55 66/46/54 56/68/54
f 58/81/56 68/42/56 67/44/55 57/67/55
f 59/83/57 61/39/57 68/42/56 58/81/56
f 35/65/35 76/82/57 69/80/56 37/63/37
f 37/63/37 69/80/56 70/66/55 39/57/39
f 49/62/49 75/77/58 76/79/57 35/64/35
f 47/60/47 74/75/51 75/77/58 49/62/49
f 45/59/45 73/73/52 74/75/51 47/60/47
f 43/61/43 72/71/53 73/73/52 45/59/45
f 41/58/41 71/69/54 72/71/53 43/61/43
f 39/57/39 70/66/55 71/69/54 41/58/41
